<?xml version="1.0"?>
<svg xmlns="http://www.w3.org/2000/svg" version="1" viewBox="0 0 26 26" enable-background="new 0 0 26 26">
    <path d="M 7.5 0 C 6.1 0 4.7875 0.4 3.6875 1 C 4.0875 1 4.39375 1.20625 4.59375 1.40625 C 4.79375 1.60625 4.9 1.8875 5 2.1875 C 5.8 1.7875 6.6 1.59375 7.5 1.59375 C 10.7 1.59375 13.40625 4.2 13.40625 7.5 C 13.40625 10.7 10.8 13.40625 7.5 13.40625 C 4.3 13.40625 1.59375 10.8 1.59375 7.5 C 1.6272555 7.4910493 1.6530361 7.5103392 1.6875 7.5 C 1.6875 5.7 2.5 5 2.5 5 L 3.3125 5.6875 C 3.4125 5.7875 3.49375 5.8125 3.59375 5.8125 C 3.69375 5.8125 3.8125 5.69375 3.8125 5.59375 C 4.1125 4.19375 4 2.4125 4 2.3125 C 4 2.2125 3.90625 2.09375 3.90625 2.09375 C 3.80625 1.99375 3.7875 2 3.6875 2 C 3.5875 2 1.9125 1.8875 0.3125 2.1875 C 0.2125 2.1875 0.09375 2.30625 0.09375 2.40625 C 0.09375 2.50625 0.0875 2.6875 0.1875 2.6875 L 1.09375 3.5 C 1.09375 3.5 0.82246455 3.9130905 0.5625 4.65625 C 0.54370301 4.6990847 0.51785264 4.7378582 0.5 4.78125 C 0.462875 4.8936563 0.44140625 4.9990234 0.40625 5.125 C 0.15275 5.8580375 4.8109664e-17 6.655 0 7.5 C 0 11.6 3.4 15 7.5 15 C 11.6 15 15 11.6 15 7.5 C 15 3.4 11.6 0 7.5 0 z M 20 2 C 19.4 2 19 2.4 19 3 L 19 6 C 19 6.6 19.4 7 20 7 C 20.6 7 21 6.6 21 6 L 21 3 C 21 2.4 20.6 2 20 2 z M 10.3125 4 C 10.2125 4.0125 10.14375 4.04375 10.09375 4.09375 L 7.59375 6.4375 C 7.2261772 6.3692936 6.8475072 6.4337428 6.59375 6.6875 C 6.19375 7.0875 6.19375 7.8125 6.59375 8.3125 C 6.6490441 8.3677941 6.7158113 8.3974931 6.78125 8.4375 L 7 10.90625 C 7 11.10625 7.1 11.3125 7.5 11.3125 C 7.8 11.3125 8 11.00625 8 10.90625 L 8.15625 8.34375 C 8.1679223 8.3349965 8.1760321 8.3216743 8.1875 8.3125 C 8.4412572 7.9953035 8.5369564 7.6005212 8.46875 7.25 L 10.6875 4.6875 C 10.7875 4.5875 10.8875 4.29375 10.6875 4.09375 C 10.5375 3.99375 10.4125 3.9875 10.3125 4 z M 15.1875 4 C 15.6875 5.1 16 6.3 16 7.5 C 16 8.4 15.89375 9.2 15.59375 10 L 24 10 L 24 23 C 24 23.6 23.6 24 23 24 L 5 24 C 4.4 24 4 23.6 4 23 L 4 15.1875 C 3.3 14.8875 2.6 14.40625 2 13.90625 L 2 22.90625 C 2 24.60625 3.3 25.90625 5 25.90625 L 23 25.90625 C 24.7 25.90625 26 24.60625 26 22.90625 L 26 7 C 26 5.3 24.7 4 23 4 L 22 4 L 22 6 C 22 7.1 21.1 8 20 8 C 18.9 8 18 7.1 18 6 L 18 4 L 15.1875 4 z M 15 12 L 15 14 L 17 14 L 17 12 L 15 12 z M 19 12 L 19 14 L 21 14 L 21 12 L 19 12 z M 7 16 L 7 18 L 9 18 L 9 16 L 7 16 z M 11 16 L 11 18 L 13 18 L 13 16 L 11 16 z M 15 16 L 15 18 L 17 18 L 17 16 L 15 16 z M 19 16 L 19 18 L 21 18 L 21 16 L 19 16 z M 7 20 L 7 22 L 9 22 L 9 20 L 7 20 z M 11 20 L 11 22 L 13 22 L 13 20 L 11 20 z M 15 20 L 15 22 L 17 22 L 17 20 L 15 20 z M 19 20 L 19 22 L 21 22 L 21 20 L 19 20 z"/>
</svg>
