<?xml version="1.0" encoding="utf-8"?>
<!-- Svg Vector Icons : http://www.onlinewebfonts.com/icon -->
<!DOCTYPE svg PUBLIC "-//W3C//DTD SVG 1.1//EN" "http://www.w3.org/Graphics/SVG/1.1/DTD/svg11.dtd">
<svg version="1.1" xmlns="http://www.w3.org/2000/svg" xmlns:xlink="http://www.w3.org/1999/xlink" x="0px" y="0px" viewBox="0 0 1000 1000" enable-background="new 0 0 1000 1000" xml:space="preserve">
<metadata> Svg Vector Icons : http://www.onlinewebfonts.com/icon </metadata>
<g><path d="M710,526.2c0,53.3,27.7,100.2,70,130v113.4c-42.3,29.8-70,76.7-70,130c0,8,1.3,15.7,2.5,23.3H570v-280H430v280H150v-420H10v-23.3L476.7,12.9h46.7l351,351C782.8,369.1,710,439.4,710,526.2z"/><path d="M920,613.8v198.1c40.7,12.9,70,47,70,87.6s-29.3,74.8-70,87.6v-87.6h-70v87.6c-40.7-12.9-70-47-70-87.6s29.3-74.8,70-87.6V613.8c-40.7-12.9-70-47-70-87.6c0-40.6,29.3-74.8,70-87.6v87.6h70v-87.6c40.7,12.9,70,47,70,87.6C990,566.8,960.7,601,920,613.8z"/></g>
</svg>